<?xml version="1.0" encoding="UTF-8"?> <svg xmlns="http://www.w3.org/2000/svg" xmlns:xlink="http://www.w3.org/1999/xlink" width="182px" height="90px" viewBox="0 0 182 90" version="1.1"><title>FutureFinance</title><defs><polygon id="path-1" points="0 0 19.0742358 0 19.0742358 23.0973451 0 23.0973451"></polygon><polygon id="path-3" points="0 0 19.0742358 0 19.0742358 23.0973451 0 23.0973451"></polygon><polygon id="path-5" points="0 90 182 90 182 0 0 0"></polygon></defs><g id="Welcome" stroke="none" stroke-width="1" fill="none" fill-rule="evenodd"><g id="A-Desktop-Banner-1" transform="translate(-1089.000000, -2391.000000)"><g id="FutureFinance" transform="translate(1089.000000, 2391.000000)"><polygon id="Fill-1" fill="#FEFEFE" points="1 0 1 4.8482198 5.61786085 4.8482198 5.61786085 22 11.2840083 22 11.2840083 4.8482198 16 4.8482198 16 0"></polygon><polygon id="Fill-2" fill="#FEFEFE" points="32.1707715 0 32.1707715 8.50948329 23.7955043 8.50948329 23.7955043 0 18 0 18 22 23.7955043 22 23.7955043 12.9297191 32.1707715 12.9297191 32.1707715 22 38 22 38 0"></polygon><polygon id="Fill-3" fill="#FEFEFE" points="42 0 42 22 54 22 54 17.1515188 47.4779772 17.1515188 47.4779772 13.3584874 53.6519011 13.3584874 53.6519011 8.50948329 47.4779772 8.50948329 47.4779772 4.8482198 54 4.8482198 54 0"></polygon><polygon id="Fill-4" fill="#FEFEFE" points="67 0 67 22 72.4346482 22 72.4346482 13.3584874 78.4031498 13.3584874 78.4031498 8.50948329 72.4346482 8.50948329 72.4346482 4.8482198 79 4.8482198 79 0"></polygon><g id="Group-36"><g id="Group-7" transform="translate(81.860262, 0.000000)"><mask id="mask-2" fill="white"><use xlink:href="#path-1"></use></mask><g id="Clip-6"></g><path d="M16.9403904,19.9234108 C14.970747,22.2196819 12.2784587,23.0973451 9.38944019,23.0973451 C6.56625864,23.0973451 3.34883615,22.1519634 1.57592289,19.7207907 C0.164202005,17.7285835 0,15.3648616 0,13.000872 L0,0 L5.67993213,0 L5.67993213,13.2037597 C5.67993213,14.2843106 5.74524861,15.2971431 6.30343134,16.2425248 C6.9927675,17.3907942 8.20749802,17.9649289 9.48780526,17.9649289 C10.8667378,17.9649289 12.0814683,17.3230758 12.803853,16.1076232 C13.4931892,14.9256285 13.3948241,13.5072882 13.3948241,12.1903919 L13.3948241,0 L19.0742358,0 L19.0742358,13.000872 C19.0742358,15.769834 18.7786202,17.7960343 16.9403904,19.9234108" id="Fill-5" fill="#FEFEFE" mask="url(#mask-2)"></path></g><polygon id="Fill-8" fill="#FEFEFE" points="112.876706 4.91499854 112.876706 22.300885 107.172979 22.300885 107.172979 4.91499854 102.524017 4.91499854 102.524017 0 117.624454 0 117.624454 4.91499854"></polygon><g id="Group-12" transform="translate(120.008734, 0.000000)"><mask id="mask-4" fill="white"><use xlink:href="#path-3"></use></mask><g id="Clip-11"></g><path d="M16.9403904,19.9234108 C14.970747,22.2196819 12.2784587,23.0973451 9.38944019,23.0973451 C6.56625864,23.0973451 3.34909637,22.1519634 1.57592289,19.7207907 C0.164202005,17.7285835 0,15.3648616 0,13.000872 L0,0 L5.68019235,0 L5.68019235,13.2037597 C5.68019235,14.2843106 5.74524861,15.2971431 6.30343134,16.2425248 C6.9927675,17.3907942 8.20749802,17.9649289 9.48780526,17.9649289 C10.8667378,17.9649289 12.0814683,17.3230758 12.803853,16.1076232 C13.4931892,14.9256285 13.3948241,13.5072882 13.3948241,12.1903919 L13.3948241,0 L19.0742358,0 L19.0742358,13.000872 C19.0742358,15.769834 18.7786202,17.7960343 16.9403904,19.9234108" id="Fill-10" fill="#FEFEFE" mask="url(#mask-4)"></path></g><path d="M149.563457,4.77876106 L148.620087,4.77876106 L148.620087,9.55752212 L149.563457,9.55752212 C151.107111,9.55752212 152.593886,8.94938713 152.593886,7.15390816 C152.593886,5.35797004 151.078785,4.77876106 149.563457,4.77876106 L149.563457,4.77876106 Z M154.242264,22.300885 L148.765116,13.7415409 L148.765116,22.300885 L143.056769,22.300885 L143.056769,0 L151.965568,0 C154.044017,0 155.859097,0.400974936 157.343853,1.97254227 C158.597671,3.27670463 159.22458,5.11541191 159.22458,6.92099171 C159.22458,8.32533156 158.795656,9.89663387 157.970762,11.0335688 C157.079961,12.2706811 155.892051,12.8388835 154.440249,13.1733385 L161.336245,22.300885 L154.242264,22.300885 Z" id="Fill-13" fill="#FEFEFE"></path><polygon id="Fill-15" fill="#FEFEFE" points="162.925764 22.300885 162.925764 0 175.641921 0 175.641921 4.91479193 168.7304 4.91479193 168.7304 8.62612902 175.273048 8.62612902 175.273048 13.5409209 168.7304 13.5409209 168.7304 17.386093 175.641921 17.386093 175.641921 22.300885"></polygon><path d="M11.9215314,38.2300885 C8.40426222,38.2300885 5.56331878,41.0847526 5.56331878,44.6187395 C5.56331878,48.1190566 8.4380383,50.9734513 11.9215314,50.9734513 C15.4047565,50.9734513 18.279476,48.1529958 18.279476,44.6187395 C18.279476,41.0847526 15.4385325,38.2300885 11.9215314,38.2300885 M12.3187773,55.7522124 C5.47495333,55.7522124 0,51.0091455 0,44.219762 C0,37.4303785 5.47495333,32.6548673 12.3187773,32.6548673 C19.1623366,32.6548673 24.6375546,37.4303785 24.6375546,44.219762 C24.6375546,51.0091455 19.1623366,55.7522124 12.3187773,55.7522124" id="Fill-17" fill="#FEFEFE"></path><polygon id="Fill-19" fill="#FEFEFE" points="32.7808208 38.9872505 32.7808208 42.5659973 39.1055212 42.5659973 39.1055212 47.3052046 32.7808208 47.3052046 32.7808208 55.7522124 27.0218341 55.7522124 27.0218341 34.2477876 39.7379913 34.2477876 39.7379913 38.9872505"></polygon><polygon id="Fill-21" fill="#FEFEFE" points="56.6236155 38.9872505 56.6236155 42.5659973 62.948316 42.5659973 62.948316 47.3052046 56.6236155 47.3052046 56.6236155 55.7522124 50.8646288 55.7522124 50.8646288 34.2477876 63.580786 34.2477876 63.580786 38.9872505"></polygon><mask id="mask-6" fill="white"><use xlink:href="#path-5"></use></mask><g id="Clip-24"></g><polygon id="Fill-23" fill="#FEFEFE" mask="url(#mask-6)" points="66.7598253 55.7522124 72.3231441 55.7522124 72.3231441 34.2477876 66.7598253 34.2477876"></polygon><polygon id="Fill-25" fill="#FEFEFE" mask="url(#mask-6)" points="91.9661481 55.7522124 81.2914938 42.5980405 81.2914938 55.7522124 75.5021834 55.7522124 75.5021834 34.2477876 81.2914938 34.2477876 91.9661481 47.4019595 91.9661481 34.2477876 97.7554585 34.2477876 97.7554585 55.7522124"></polygon><path d="M111.266507,40.619469 L108.882096,46.9911504 L113.650655,46.9911504 L111.266507,40.619469 Z M116.266609,55.7522124 L114.84289,52.0124235 L106.928175,52.0124235 L105.405236,55.7522124 L99.3449782,55.7522124 L107.822462,34.2477876 L114.081158,34.2477876 L122.393013,55.7522124 L116.266609,55.7522124 Z" id="Fill-26" fill="#FEFEFE" mask="url(#mask-6)"></path><polygon id="Fill-27" fill="#FEFEFE" mask="url(#mask-6)" points="140.653259 55.7522124 130.359842 42.5980405 130.359842 55.7522124 124.777293 55.7522124 124.777293 34.2477876 130.359842 34.2477876 140.653259 47.4019595 140.653259 34.2477876 146.235808 34.2477876 146.235808 55.7522124"></polygon><path d="M160.479131,55.7522124 C154.432771,55.7522124 149.414847,50.9984869 149.414847,44.7135449 C149.414847,38.3964866 154.277134,33.4513274 160.448004,33.4513274 C162.192864,33.4513274 163.720573,33.8979217 165.310044,34.5362025 L165.310044,41.1402849 C164.094595,39.640679 162.56738,38.8112174 160.635015,38.8112174 C157.331318,38.8112174 155.056058,41.3635821 155.056058,44.6816815 C155.056058,47.9676645 157.424947,50.3923224 160.635015,50.3923224 C162.504878,50.3923224 164.063468,49.5626079 165.310044,48.1590982 L165.310044,54.6992007 C163.751701,55.2413854 162.161983,55.7522124 160.479131,55.7522124" id="Fill-28" fill="#FEFEFE" mask="url(#mask-6)"></path><polygon id="Fill-29" fill="#FEFEFE" mask="url(#mask-6)" points="169.283843 55.7522124 169.283843 34.2477876 182 34.2477876 182 38.9870513 175.088478 38.9870513 175.088478 42.5658406 181.631127 42.5658406 181.631127 47.3051042 175.088478 47.3051042 175.088478 51.0129487 182 51.0129487 182 55.7522124"></polygon><polygon id="Fill-30" fill="#FEFEFE" mask="url(#mask-6)" points="0.794759825 89.2035398 6.3580786 89.2035398 6.3580786 66.9026549 0.794759825 66.9026549"></polygon><path d="M24.5842377,85.4760355 C23.1255135,88.1522831 19.6315664,89.2035398 16.6124778,89.2035398 C13.7966695,89.2035398 11.0488901,88.3116256 8.74235808,86.8141593 L11.2524393,82.3540833 C12.7111635,83.5646826 14.441197,84.5202328 16.4428087,84.5202328 C17.8676529,84.5202328 19.2583481,83.9467511 19.2583481,82.4177193 C19.2583481,78.722033 9.6581949,81.5253001 9.6581949,74.0707965 C9.6581949,69.770063 12.7791925,66.9026549 17.3247655,66.9026549 C19.8351156,66.9026549 22.3113168,67.5397725 24.5164776,68.6230998 L22.1757966,72.9238332 C21.0564106,72.063737 19.8012355,71.4902554 18.3083624,71.4902554 C17.1550963,71.4902554 15.7980122,72.095555 15.7980122,73.3382248 C15.7980122,76.460177 25.4323144,74.4212995 25.4323144,81.6848951 C25.4323144,82.8954944 25.1948852,84.3929608 24.5842377,85.4760355" id="Fill-31" fill="#FEFEFE" mask="url(#mask-6)"></path><path d="M48.0830951,71.6814159 C44.7856552,71.6814159 42.1222707,74.5360197 42.1222707,78.0702013 C42.1222707,81.570175 44.8173203,84.4247788 48.0830951,84.4247788 C51.3486186,84.4247788 54.0436681,81.6041135 54.0436681,78.0702013 C54.0436681,74.5360197 51.3802836,71.6814159 48.0830951,71.6814159 M48.0831017,90 C41.2393513,90 35.7641921,85.2571378 35.7641921,78.4676786 C35.7641921,71.6782194 41.2393513,66.9026549 48.0831017,66.9026549 C54.9265876,66.9026549 60.4017467,71.6782194 60.4017467,78.4676786 C60.4017467,85.2571378 54.9265876,90 48.0831017,90" id="Fill-32" fill="#FEFEFE" mask="url(#mask-6)"></path><path d="M70.1882333,71.6814159 L68.349345,71.6814159 L68.349345,77.2566372 L70.1568564,77.2566372 C71.9334849,77.2566372 73.1179039,76.584959 73.1179039,74.5028367 C73.1179039,72.453726 71.9646148,71.6814159 70.1882333,71.6814159 M72.0694442,81.8142581 L68.4813763,81.8142581 L68.4813763,89.2035398 L62.7860262,89.2035398 L62.7860262,66.9026549 L71.8719191,66.9026549 C74.0115568,66.9026549 75.7235278,67.2034523 77.3363449,68.7747546 C78.8836682,70.279537 79.4759825,72.1852943 79.4759825,74.325064 C79.4759825,79.173336 76.8426627,81.8142581 72.0694442,81.8142581" id="Fill-33" fill="#FEFEFE" mask="url(#mask-6)"></path><polygon id="Fill-34" fill="#FEFEFE" mask="url(#mask-6)" points="81.860262 89.2035398 81.860262 66.9026549 94.5764192 66.9026549 94.5764192 71.8171818 87.665019 71.8171818 87.665019 75.5285189 94.2078041 75.5285189 94.2078041 80.4435758 87.665019 80.4435758 87.665019 84.2884829 94.5764192 84.2884829 94.5764192 89.2035398"></polygon><polygon id="Fill-35" fill="#FEFEFE" mask="url(#mask-6)" points="113.631425 89.2035398 103.338008 75.5619114 103.338008 89.2035398 97.7554585 89.2035398 97.7554585 66.9026549 103.338008 66.9026549 113.631425 80.5437533 113.631425 66.9026549 119.213974 66.9026549 119.213974 89.2035398"></polygon></g></g></g></g></svg> 